<?xml version="1.0" standalone="no"?>
<!DOCTYPE svg PUBLIC "-//W3C//DTD SVG 20010904//EN"
 "http://www.w3.org/TR/2001/REC-SVG-20010904/DTD/svg10.dtd">
<svg version="1.0" xmlns="http://www.w3.org/2000/svg"
 width="180.000000pt" height="180.000000pt" viewBox="0 0 180.000000 180.000000"
 preserveAspectRatio="xMidYMid meet">
<metadata>
Created by potrace 1.14, written by Peter Selinger 2001-2017
</metadata>
<g transform="translate(0.000000,180.000000) scale(0.100000,-0.100000)"
fill="#000000" stroke="none">
<path d="M0 900 l0 -900 900 0 900 0 0 900 0 900 -900 0 -900 0 0 -900z m1206
518 c146 -29 206 -108 206 -270 0 -75 -3 -93 -25 -130 -14 -24 -34 -52 -46
-62 -27 -25 -26 -37 5 -67 59 -55 82 -153 64 -279 -21 -146 -90 -217 -229
-236 -70 -9 -162 12 -212 48 -55 40 -92 120 -97 212 -3 50 -1 71 9 77 22 14
155 11 167 -4 6 -7 14 -36 18 -65 9 -69 35 -102 79 -102 59 0 81 46 78 161 -2
89 -37 139 -96 139 -37 0 -48 22 -45 87 3 53 5 58 28 61 81 10 112 51 113 146
1 73 -23 125 -56 127 -71 4 -82 -6 -101 -94 -7 -37 -16 -71 -20 -74 -7 -7
-156 -4 -168 3 -14 9 -9 111 8 161 27 81 95 140 184 159 72 16 67 16 136 2z
m-501 -17 c7 -13 7 -989 0 -1002 -7 -10 -144 -13 -169 -3 -14 5 -16 49 -16
393 0 276 -3 390 -11 398 -9 9 -21 8 -50 -3 -20 -9 -48 -14 -61 -12 -19 2 -24
10 -26 42 -6 67 4 83 66 115 31 16 72 41 91 55 30 22 45 26 102 26 37 0 70 -4
74 -9z"/>
</g>
</svg>
