<?xml version="1.0" encoding="UTF-8"?>
<svg id="Livello_2" data-name="Livello 2" xmlns="http://www.w3.org/2000/svg" viewBox="0 0 1253.22 120.46">
  <defs>
    <style>
      .cls-1 {
        fill: #fff;
        stroke: #fff;
      }
    </style>
  </defs>
  <g id="canvas">
    <path class="cls-1" d="M53.08,34.44c-.53-.05-.88-.03-2.17.58-1.29.61-2.21.86-4.29,2.48-2.08,1.61-3.33,2.83-6.1,5.6-2.77,2.77-4.39,4.54-7.75,8.24-3.36,3.7-5.48,5.89-9.05,10.25-3.56,4.37-5.52,6.85-8.79,11.59-3.26,4.73-5,7.4-7.53,12.08s-3.73,7.09-5.1,11.32c-1.38,4.24-1.91,6.36-1.78,9.84s.67,5.14,2.43,7.58c1.77,2.43,3.31,3.41,6.39,4.6,3.08,1.19,5.04,1.34,9,1.36,3.97.02,6.4-.38,10.83-1.27,4.43-.89,6.94-1.69,11.31-3.2,4.37-1.51,6.62-2.62,10.55-4.35,3.92-1.73,6.25-2.71,9.05-4.31,2.81-1.6,3.62-2.45,4.97-3.69,1.34-1.25,1.48-1.77,1.76-2.54.28-.77-.06-.92-.37-1.31-.31-.4-.73-.58-1.16-.65-.43-.08-.81-.1-.98.27-.16.37-.06,1.25.16,1.58.22.34.62.21.93.09s.54-.55.63-.68c.09-.12.28-.26-.17.07-.44.33-.68.64-2.07,1.6-1.39.96-2.16,1.64-4.87,3.19-2.72,1.56-4.9,2.78-8.71,4.56-3.81,1.79-6.06,2.9-10.34,4.38-4.28,1.49-6.77,2.21-11.07,3.03-4.3.82-6.7,1.11-10.43,1.06-3.73-.05-5.48-.29-8.22-1.31-2.73-1.01-3.91-1.74-5.44-3.77-1.54-2.03-2.07-3.25-2.23-6.37-.15-3.13.2-5.17,1.46-9.24,1.25-4.07,2.38-6.5,4.83-11.11,2.45-4.62,4.17-7.28,7.41-11.96,3.24-4.67,5.2-7.13,8.79-11.41,3.6-4.28,5.74-6.44,9.19-9.99,3.45-3.54,5.17-5.2,8.06-7.72,2.9-2.52,4.42-3.28,6.41-4.88,2-1.6,2.58-2.18,3.57-3.13,1-.95,1.23-1.12,1.41-1.61.18-.5.02-.79-.52-.85"/>
    <path class="cls-1" d="M23.2,88.04c.71.03,1.42-.18,3.08-.85,1.66-.66,2.65-1.11,5.22-2.49s4.19-2.45,7.63-4.41,5.59-3.11,9.57-5.39c3.97-2.29,6.16-3.65,10.32-6.02,4.16-2.38,6.49-3.68,10.47-5.86,3.97-2.17,6.04-3.28,9.42-5.01,3.37-1.73,5.14-2.6,7.45-3.63,2.3-1.03,3.15-1.56,4.07-1.52.92.03.81.3.51,1.69-.29,1.4-.96,2.56-1.98,5.28-1.03,2.73-1.71,4.77-3.14,8.35-1.44,3.59-2.46,5.83-4.03,9.58-1.57,3.75-2.59,5.87-3.82,9.18-1.24,3.31-1.94,5-2.34,7.39-.4,2.39-.34,3.41.33,4.57.67,1.15,1.34,1.47,3.02,1.2,1.68-.27,2.96-.76,5.39-2.55,2.43-1.78,3.77-3.45,6.77-6.38,3-2.94,4.79-4.93,8.22-8.3,3.43-3.37,5.47-5.43,8.94-8.57,3.47-3.13,5.45-4.79,8.41-7.11,2.96-2.31,4.58-3.3,6.39-4.45s2.35-1.52,2.65-1.29c.3.23-.21.8-1.14,2.46-.93,1.66-1.89,3.1-3.52,5.83-1.63,2.74-2.8,4.77-4.62,7.84-1.81,3.06-3.09,4.8-4.46,7.49-1.37,2.68-2.07,4.07-2.39,5.92s-.12,2.67.79,3.33c.92.67,1.82.75,3.79-.01,1.97-.76,3.27-1.74,6.05-3.78,2.78-2.03,4.47-3.65,7.85-6.41,3.38-2.76,5.42-4.61,9.04-7.39s5.74-4.35,9.08-6.5,5.22-3.03,7.62-4.25c2.4-1.21,3.35-1.72,4.38-1.84s1.02.16.79,1.25c-.23,1.09-.94,2.06-1.94,4.21-.99,2.16-1.81,3.82-3.05,6.57s-2.26,4.43-3.15,7.2c-.89,2.77-1.36,4.39-1.3,6.66.05,2.26.3,3.35,1.58,4.66s2.33,1.81,4.82,1.87c2.49.05,4.1-.38,7.63-1.58,3.54-1.2,5.66-2.31,10.06-4.43,4.4-2.11,7.04-3.53,11.95-6.16,4.91-2.62,7.69-4.24,12.59-6.95,4.9-2.71,7.5-4.18,11.9-6.58,4.4-2.39,6.63-3.53,10.09-5.38,3.46-1.85,5.1-2.52,7.19-3.85,2.09-1.34,2.72-1.94,3.27-2.83.54-.89.32-1.32-.57-1.61-.88-.3-1.79-.53-3.86.14-2.07.67-3.55,1.4-6.49,3.19-2.94,1.8-4.84,3.19-8.22,5.77-3.39,2.57-5.34,4.2-8.7,7.13-3.37,2.92-5.28,4.63-8.11,7.48-2.82,2.86-4.3,4.3-6.03,6.77-1.74,2.47-2.22,3.72-2.65,5.58-.43,1.86-.33,2.73.49,3.74.82,1.01,1.69,1.37,3.61,1.31,1.92-.07,3.38-.34,6-1.65,2.62-1.3,4.05-2.55,7.09-4.88,3.03-2.34,4.81-3.9,8.09-6.78,3.27-2.87,5.1-4.56,8.26-7.58,3.16-3.02,4.87-4.78,7.52-7.52s4.21-4.24,5.74-6.18,1.87-2.91,1.92-3.51c.05-.61-.53-.52-1.69.5-1.16,1.01-2.43,2.19-4.11,4.57-1.69,2.39-2.76,4.37-4.3,7.34-1.55,2.97-2.61,4.75-3.44,7.5-.83,2.76-1.06,4.22-.7,6.27.35,2.05.93,2.98,2.48,3.99,1.56,1.01,2.77,1.32,5.29,1.08,2.52-.25,4.06-.82,7.32-2.29,3.26-1.48,5.17-2.74,8.98-5.07,3.82-2.33,6-3.84,10.09-6.58,4.09-2.75,6.42-4.44,10.39-7.15,3.96-2.72,6.17-4.25,9.44-6.42,3.28-2.17,5.02-3.17,6.94-4.44,1.92-1.26,2.44-1.86,2.67-1.89.23-.03-.39.35-1.53,1.74-1.14,1.39-2.29,2.68-4.18,5.2-1.89,2.53-3.17,4.53-5.26,7.43-2.08,2.9-3.63,4.58-5.17,7.07-1.53,2.5-2.21,3.84-2.52,5.39-.32,1.55-.14,2.18.95,2.38,1.1.19,2.24-.04,4.53-1.42,2.29-1.38,3.72-2.96,6.91-5.5,3.19-2.53,5.25-4.34,9.05-7.16,3.8-2.83,6.14-4.51,9.95-6.96,3.8-2.46,6.04-3.74,9.06-5.32,3.03-1.58,4.35-2.07,6.05-2.57,1.7-.5,2.14-.55,2.44.09.3.64-.16,1.36-.95,3.1-.8,1.75-1.7,3.12-3.02,5.63-1.33,2.5-2.33,4.18-3.6,6.89-1.27,2.72-2.15,4.32-2.76,6.69-.61,2.37-.79,3.61-.3,5.17.5,1.56,1.07,2.18,2.77,2.63,1.7.45,3.08.48,5.74-.39,2.67-.86,4.21-1.91,7.58-3.95,3.36-2.04,5.35-3.55,9.25-6.27s6.25-4.45,10.24-7.34c4-2.89,6.41-4.71,9.73-7.11,3.33-2.4,5.07-3.61,6.89-4.88,1.82-1.27,2.18-1.67,2.22-1.45.04.22-.75.84-2.02,2.56-1.28,1.73-2.59,3.34-4.35,6.08-1.76,2.74-3.02,4.69-4.44,7.61-1.42,2.91-2.2,4.54-2.67,6.97-.46,2.42-.4,3.55.33,5.16.73,1.6,1.49,2.25,3.33,2.86,1.83.62,3.16.77,5.85.2,2.68-.56,4.3-1.43,7.57-3.03,3.27-1.61,5.19-2.75,8.76-4.99,3.57-2.24,5.55-3.69,9.09-6.21,3.55-2.53,5.48-4.07,8.63-6.4,3.15-2.34,5.07-3.58,7.11-5.28,2.04-1.71,2.65-2.74,3.09-3.25s-.01-.28-.9.72c-.89.99-2,2.06-3.55,4.27-1.55,2.21-2.77,3.97-4.21,6.78s-2.35,4.65-2.97,7.26c-.61,2.62-.7,3.98-.1,5.83.6,1.85,1.24,2.64,3.08,3.42,1.84.78,3.25,1,6.11.48,2.86-.52,4.61-1.38,8.2-3.07,3.59-1.69,5.71-2.95,9.76-5.37,4.05-2.42,6.4-3.91,10.49-6.73,4.08-2.83,6.36-4.53,9.94-7.4,3.58-2.86,5.41-4.41,7.97-6.94,2.55-2.53,3.79-3.82,4.79-5.7,1-1.87.97-2.91.21-3.68-.77-.77-1.97-.92-4.03-.17s-3.6,1.8-6.29,3.9c-2.68,2.11-4.42,3.79-7.15,6.63-2.74,2.84-4.37,4.57-6.5,7.56-2.14,3-3.24,4.63-4.19,7.42-.95,2.79-1.11,4.32-.57,6.53.54,2.21,1.27,3.29,3.28,4.53,2.01,1.24,3.57,1.72,6.76,1.66,3.19-.05,5.09-.52,9.2-1.94,4.11-1.41,6.53-2.59,11.36-5.14,4.83-2.56,7.56-4.16,12.8-7.63,5.25-3.46,8.07-5.6,13.42-9.72,5.35-4.12,8.24-6.5,13.34-10.89,5.1-4.4,7.77-6.78,12.15-11.07,4.38-4.29,6.5-6.6,9.75-10.39,3.26-3.79,4.72-5.56,6.53-8.55s2.39-4.5,2.52-6.41-.42-2.76-1.86-3.14c-1.43-.38-2.74-.24-5.31,1.23-2.58,1.47-4.18,2.96-7.54,6.13-3.36,3.18-5.5,5.37-9.28,9.73-3.79,4.36-6.01,7.12-9.65,12.06-3.63,4.93-5.63,7.72-8.54,12.61-2.9,4.9-4.27,7.47-6,11.86-1.73,4.38-2.34,6.52-2.65,10.06-.3,3.55-.07,5.16,1.12,7.64,1.2,2.49,2.32,3.51,4.86,4.8,2.54,1.28,4.31,1.54,7.85,1.62,3.54.07,5.62-.24,9.87-1.27,4.24-1.02,6.73-1.93,11.35-3.85,4.61-1.92,7.2-3.27,11.72-5.75,4.52-2.48,6.89-3.97,10.88-6.66,3.99-2.68,6.1-4.17,9.06-6.78,2.96-2.6,4.33-3.95,5.74-6.25,1.41-2.31,1.57-3.64,1.3-5.28-.27-1.65-.94-2.37-2.64-2.96-1.71-.6-3.24-.7-5.88,0-2.64.71-4.38,1.61-7.34,3.53-2.95,1.92-4.66,3.41-7.44,6.06-2.79,2.64-4.36,4.22-6.48,7.17-2.13,2.94-3.34,4.61-4.16,7.56-.83,2.95-.85,4.65.02,7.18.88,2.53,1.82,3.82,4.34,5.48,2.53,1.66,4.39,2.19,8.29,2.82,3.89.63,6.76.48,11.2.33,4.43-.16,7.23-.53,10.99-1.12,3.75-.58,6.27-1.24,7.79-1.83,1.52-.58,1.42-1.06-.2-1.11-1.61-.04-4.12.52-7.86.89-3.73.36-6.48.83-10.79.94-4.31.11-7.14.22-10.76-.38s-5.15-1.27-7.34-2.61c-2.18-1.35-2.93-2.14-3.59-4.11-.66-1.98-.5-3.24.3-5.77s1.72-4.14,3.71-6.86c1.99-2.73,3.52-4.32,6.22-6.77,2.7-2.45,4.48-3.76,7.28-5.46,2.8-1.71,4.46-2.24,6.72-3.07,2.26-.83,3.36-1.13,4.59-1.09,1.24.04,1.6.26,1.57,1.3-.04,1.05-.36,1.93-1.74,3.92-1.38,1.99-2.39,3.45-5.17,6.02-2.77,2.57-4.83,4.13-8.71,6.82-3.89,2.68-6.25,4.17-10.71,6.6-4.46,2.43-7.05,3.74-11.6,5.56-4.54,1.82-7.03,2.64-11.12,3.53-4.1.89-6.1,1.01-9.36.93-3.25-.08-4.73-.35-6.91-1.34-2.19-.99-3.02-1.58-4.03-3.62-1.02-2.04-1.28-3.35-1.03-6.6.24-3.25.65-5.38,2.26-9.64,1.6-4.27,2.91-6.86,5.75-11.69,2.85-4.83,4.83-7.62,8.47-12.47,3.64-4.86,5.88-7.61,9.72-11.82,3.84-4.21,6.07-6.31,9.46-9.25,3.4-2.95,5.26-3.92,7.51-5.47,2.25-1.56,2.92-2.2,3.76-2.32.84-.13.9.23.45,1.7-.44,1.47-.93,2.8-2.66,5.65-1.74,2.85-2.91,4.79-6.01,8.59-3.11,3.81-5.21,6.13-9.52,10.43-4.31,4.3-6.97,6.68-12.04,11.06-5.06,4.37-7.95,6.75-13.3,10.82-5.34,4.08-8.17,6.18-13.41,9.56-5.24,3.37-7.99,4.92-12.79,7.32-4.81,2.39-7.27,3.44-11.24,4.64-3.97,1.2-5.76,1.27-8.62,1.35-2.85.08-4.04-.14-5.65-.94-1.6-.81-2.1-1.42-2.37-3.08-.27-1.66.07-2.81,1.02-5.23.96-2.43,1.73-4.08,3.76-6.89,2.02-2.8,3.66-4.5,6.37-7.15s4.65-4.05,7.18-6.09c2.54-2.05,3.91-3.03,5.49-4.14,1.59-1.1,2.21-1.53,2.44-1.4.22.13-.11.59-1.32,2.05-1.21,1.45-2.25,2.77-4.71,5.22-2.46,2.46-4.12,4.18-7.6,7.06-3.48,2.87-5.75,4.56-9.8,7.33-4.05,2.77-6.42,4.23-10.46,6.51-4.04,2.28-6.23,3.42-9.74,4.89s-5.26,1.87-7.79,2.45c-2.54.59-3.56.79-4.9.49-1.35-.31-1.7-.71-1.85-2.01-.15-1.31.21-2.32,1.08-4.51s1.8-3.84,3.27-6.46c1.47-2.62,2.84-4.23,4.07-6.64,1.24-2.41,1.88-3.86,2.11-5.39.24-1.54.13-2.22-.93-2.27-1.07-.05-2.13.5-4.39,2.02-2.25,1.53-3.81,3.19-6.89,5.61-3.07,2.42-4.97,3.98-8.47,6.48-3.51,2.49-5.5,3.9-9.06,5.99-3.55,2.1-5.55,3.08-8.73,4.49-3.17,1.41-4.78,1.91-7.14,2.56-2.37.64-3.31.83-4.68.66-1.37-.17-1.85-.43-2.18-1.5-.33-1.08-.16-1.86.54-3.86.7-2.01,1.49-3.48,2.97-6.18,1.49-2.71,2.82-4.55,4.45-7.34,1.64-2.79,2.9-4.47,3.72-6.62.82-2.14,1.05-3.29.37-4.11-.68-.81-1.58-.95-3.76.05-2.17,1-3.76,2.51-7.11,4.96-3.34,2.45-5.63,4.38-9.61,7.27-3.97,2.9-6.34,4.61-10.26,7.21-3.93,2.6-6.02,3.96-9.36,5.78-3.34,1.82-4.97,2.39-7.33,3.33-2.37.93-3.32,1.3-4.49,1.34-1.17.04-1.36-.12-1.37-1.14,0-1.01.46-1.92,1.33-3.93.87-2.01,1.68-3.53,3.04-6.12s2.53-4.18,3.75-6.83c1.22-2.65,1.99-4.25,2.36-6.43.37-2.19.37-3.35-.49-4.5s-1.7-1.49-3.81-1.26c-2.1.23-3.55.81-6.72,2.42-3.17,1.61-5.28,3.13-9.12,5.64-3.85,2.51-6.2,4.18-10.09,6.93-3.9,2.74-6.11,4.41-9.39,6.81-3.28,2.39-5,3.57-7,5.17-2.01,1.6-2.56,2.42-3.02,2.84-.45.42-.13.29.73-.73.85-1.01,1.83-2.06,3.55-4.34,1.71-2.28,2.94-4.19,5.03-7.07,2.1-2.87,3.67-4.66,5.45-7.33,1.78-2.66,2.78-4.12,3.45-5.99.68-1.87.74-2.8-.07-3.36-.82-.56-1.8-.48-4.01.56-2.21,1.03-3.77,2.37-7.04,4.62-3.28,2.25-5.39,3.89-9.33,6.63-3.94,2.75-6.27,4.43-10.37,7.11-4.1,2.68-6.32,4.13-10.14,6.29s-5.84,3.19-8.95,4.51c-3.12,1.32-4.51,1.68-6.64,2.09s-2.93.48-4-.06c-1.07-.53-1.38-1.07-1.35-2.61.03-1.53.48-2.67,1.48-5.07,1-2.39,1.95-4.13,3.53-6.92,1.58-2.78,2.96-4.53,4.37-7.02,1.41-2.5,2.2-3.97,2.68-5.45.48-1.49.46-2.05-.27-1.98-.72.06-1.58.59-3.35,2.31-1.78,1.72-2.97,3.52-5.54,6.3-2.56,2.78-4.19,4.59-7.3,7.59-3.11,3-4.96,4.67-8.25,7.42-3.29,2.75-5.15,4.25-8.2,6.33s-4.67,2.82-7.06,4.08c-2.4,1.26-3.46,1.76-4.9,2.24-1.43.48-1.9.6-2.28.17-.38-.44-.27-.93.38-2.34.64-1.42,1.16-2.44,2.84-4.73,1.67-2.3,2.84-3.91,5.53-6.74,2.7-2.83,4.6-4.56,7.93-7.4s5.3-4.45,8.73-6.81c3.42-2.36,5.5-3.37,8.4-5s4.32-2.16,6.1-3.15c1.78-.98,2.29-1.38,2.79-1.79.51-.41.52-.56-.27-.27-.79.28-1.56.53-3.68,1.7-2.13,1.17-3.58,2.19-6.96,4.14-3.38,1.96-5.58,3.19-9.94,5.64-4.37,2.46-6.98,3.94-11.87,6.64-4.9,2.69-7.69,4.31-12.61,6.85-4.92,2.53-7.6,3.9-12,5.84s-6.62,2.8-10,3.86c-3.39,1.07-4.84,1.32-6.93,1.48-2.09.17-2.73.15-3.53-.64-.79-.79-.72-1.5-.42-3.3.31-1.8.92-3.17,1.96-5.69,1.03-2.52,2.01-4.16,3.23-6.91,1.22-2.76,2.16-4.44,2.86-6.88.71-2.45.98-3.78.64-5.37-.33-1.59-.75-2.26-2.32-2.58-1.57-.33-2.89-.17-5.55.98-2.65,1.15-4.35,2.47-7.72,4.75-3.38,2.28-5.47,3.88-9.14,6.65-3.68,2.77-5.77,4.58-9.24,7.19-3.47,2.62-5.4,3.93-8.12,5.9s-3.95,2.89-5.48,3.96c-1.53,1.06-1.87,1.48-2.17,1.37-.3-.11-.08-.51.66-1.92.73-1.42,1.54-2.63,3.02-5.14s2.52-4.37,4.37-7.41,3.3-4.91,4.86-7.77c1.57-2.87,2.45-4.47,2.95-6.58.49-2.1.45-3.17-.48-3.93-.93-.77-1.98-.84-4.16.11-2.18.95-3.72,2.23-6.74,4.63-3.02,2.4-4.88,4.19-8.36,7.37-3.48,3.18-5.54,5.24-9.05,8.54-3.5,3.3-5.39,5.22-8.48,7.96-3.1,2.75-4.76,3.96-6.98,5.76-2.22,1.8-3.02,2.58-4.11,3.23-1.09.66-1.24.76-1.33.05-.09-.71.26-1.45.89-3.58s1.07-3.84,2.26-7.08c1.19-3.24,2.09-5.4,3.68-9.12,1.6-3.71,2.73-5.89,4.31-9.46,1.58-3.57,2.67-5.47,3.59-8.39.91-2.92,1.21-4.36.99-6.21s-.62-2.55-2.08-3.04c-1.47-.49-2.7-.33-5.26.59-2.55.93-4.15,2.18-7.52,4.03-3.38,1.86-5.38,3.02-9.34,5.24-3.96,2.22-6.3,3.53-10.48,5.87-4.17,2.35-6.37,3.69-10.39,5.86-4.03,2.17-6.2,3.23-9.74,4.99s-5.4,2.43-7.97,3.82c-2.57,1.38-3.42,2.09-4.88,3.11-1.47,1.02-2.06,1.4-2.44,1.99-.39.6-.22.95.5.98"/>
    <path class="cls-1" d="M683.19,10.12c-.6.56-1.06,1.19-2.01,3.19-.95,2-1.35,3.36-2.73,6.81-1.39,3.44-2.1,5.75-4.2,10.41-2.09,4.67-3.47,7.54-6.28,12.91-2.82,5.38-4.56,8.47-7.79,13.95-3.24,5.48-5.08,8.51-8.4,13.45-3.32,4.94-5.19,7.4-8.2,11.24-3.01,3.85-4.6,5.62-6.83,7.96-2.23,2.34-3.05,2.76-4.31,3.74-1.27.99-1.46,1.07-2.02,1.19-.56.11-.56-.58-.79-.62-.24-.04-.54.11-.38.43.16.31.36,1.06,1.19,1.15.83.09,1.41.2,2.96-.7,1.56-.9,2.53-1.36,4.82-3.8s3.68-4.42,6.62-8.38c2.95-3.97,4.8-6.45,8.11-11.44,3.3-4.99,5.14-8.02,8.42-13.51,3.27-5.49,5.03-8.58,7.94-13.94,2.92-5.35,4.36-8.21,6.64-12.83,2.28-4.62,3.26-6.84,4.75-10.27,1.5-3.42,2.02-4.75,2.71-6.86.7-2.11.81-2.87.77-3.69-.05-.81-.39-.95-.99-.39"/>
    <path class="cls-1" d="M653.01,12.02c.61-.1.99-.67,2.29-1.32,1.3-.64,1.98-1.18,4.2-1.9,2.22-.71,3.72-1.25,6.9-1.67,3.18-.42,5.13-.58,9.02-.43,3.89.15,6.12.36,10.43,1.17,4.31.82,6.81,1.35,11.11,2.89,4.3,1.53,6.64,2.49,10.38,4.78,3.74,2.28,5.67,3.68,8.31,6.64,2.65,2.95,3.81,4.66,4.9,8.14,1.1,3.48,1.25,5.34.58,9.26-.66,3.92-1.46,6.03-3.9,10.33-2.43,4.31-4.19,6.68-8.29,11.18-4.1,4.49-6.8,6.89-12.21,11.29-5.41,4.41-8.72,6.71-14.85,10.73-6.14,4.02-9.69,6.14-15.84,9.38-6.15,3.25-9.46,4.69-14.91,6.86-5.44,2.16-8.12,2.99-12.33,3.96-4.2.98-6.09.99-8.69.9-2.59-.08-3.39-.45-4.28-1.32-.89-.86-.37-1.88-.15-3,.23-1.12.72-1.63,1.27-2.6.54-.97,1.35-1.64,1.47-2.27.12-.62-.2-1.06-.89-.85-.68.21-1.76.79-2.53,1.89-.77,1.1-1.25,2.03-1.31,3.62-.05,1.59-.25,3,1.01,4.32,1.27,1.32,2.42,2.09,5.32,2.26,2.89.17,4.84-.26,9.17-1.4,4.32-1.14,6.95-2.03,12.44-4.3,5.48-2.26,8.79-3.72,14.97-7.01,6.18-3.3,9.74-5.42,15.92-9.46,6.18-4.03,9.51-6.32,15-10.73s8.24-6.79,12.46-11.32c4.22-4.53,6.06-6.9,8.64-11.33,2.58-4.43,3.52-6.64,4.25-10.83.74-4.19.62-6.33-.55-10.11-1.17-3.79-2.49-5.66-5.29-8.82-2.81-3.15-4.86-4.58-8.75-6.96-3.88-2.38-6.28-3.35-10.7-4.96-4.41-1.6-6.94-2.16-11.35-3.08-4.41-.91-6.66-1.17-10.68-1.5-4.02-.33-6.03-.39-9.44-.13-3.42.27-5.21.58-7.64,1.46-2.44.87-3.29,1.83-4.53,2.92-1.25,1.09-1.52,1.85-1.71,2.52-.18.66.16.9.78.8"/>
    <path class="cls-1" d="M704.15,86.21c.87.14,1.94.15,4.05-.4,2.11-.54,3.52-1.02,6.53-2.33,3-1.32,5.06-2.32,8.51-4.24,3.44-1.93,5.35-3.13,8.72-5.4,3.36-2.28,5.12-3.66,8.09-5.98,2.96-2.33,4.54-3.47,6.72-5.64,2.17-2.17,3.11-3.31,4.14-5.23,1.04-1.92,1.28-2.93,1.03-4.36-.26-1.43-.77-2.14-2.32-2.78-1.55-.64-2.84-.94-5.43-.4-2.59.54-4.34,1.33-7.54,3.11-3.2,1.78-5.19,3.18-8.46,5.79-3.27,2.61-5.18,4.22-7.9,7.26-2.73,3.05-4.19,4.81-5.73,7.95-1.53,3.13-2.1,4.93-1.95,7.72.15,2.79.82,4.22,2.71,6.23,1.89,2.02,3.44,2.84,6.74,3.85,3.31,1.02,5.45,1.15,9.78,1.21s7.01-.27,11.87-.91c4.86-.64,7.6-1.24,12.42-2.28,4.82-1.04,7.34-1.76,11.7-2.93,4.36-1.16,6.76-1.8,10.1-2.88,3.35-1.09,4.61-1.68,6.64-2.53,2.03-.85,2.85-1.23,3.5-1.72.65-.49.58-.72-.24-.73-.82-.01-1.76.11-3.87.7-2.11.58-3.37,1.15-6.69,2.23-3.32,1.08-5.63,1.93-9.93,3.16-4.3,1.23-6.81,1.96-11.58,2.98-4.77,1.03-7.5,1.59-12.28,2.15-4.77.56-7.44.8-11.59.66-4.15-.14-6.15-.46-9.14-1.36-2.99-.91-4.24-1.56-5.83-3.15-1.59-1.58-2.04-2.49-2.11-4.77-.06-2.28.37-3.8,1.79-6.62s2.71-4.62,5.31-7.49c2.6-2.88,4.5-4.48,7.7-6.9,3.21-2.41,5.28-3.62,8.34-5.18,3.06-1.57,4.73-1.96,6.97-2.63,2.23-.66,3.1-.77,4.2-.69,1.1.08,1.33.28,1.31,1.11-.03.82-.36,1.48-1.45,3.01-1.09,1.53-1.94,2.56-4.01,4.63s-3.46,3.37-6.31,5.69c-2.85,2.32-4.61,3.7-7.93,5.89s-5.22,3.3-8.66,5.06c-3.43,1.76-5.56,2.48-8.5,3.76-2.94,1.27-4.25,1.74-6.19,2.6-1.95.86-2.88,1.13-3.53,1.69-.64.55-.56.95.3,1.09"/>
    <path class="cls-1" d="M894.14,16.63c-.47.25-.76.41-1.51,1.65-.75,1.24-1.16,2.02-2.25,4.54-1.09,2.53-1.56,4.23-3.21,8.07s-2.64,6.34-5.02,11.14c-2.38,4.79-4.01,7.59-6.87,12.83-2.86,5.23-4.61,8.28-7.45,13.35-2.83,5.08-4.36,7.82-6.73,12.01-2.37,4.18-3.67,6.15-5.1,8.93-1.44,2.78-1.88,3.94-2.05,4.98-.18,1.05.37,1.22,1.18.24.81-.97,1.47-2.17,2.87-5.11,1.39-2.95,2.05-5.2,4.11-9.61,2.06-4.42,3.37-7.24,6.17-12.45s4.42-8.2,7.82-13.61c3.4-5.41,5.35-8.23,9.17-13.46,3.81-5.22,5.99-7.99,9.91-12.67,3.92-4.67,5.99-6.96,9.68-10.72,3.7-3.76,5.59-5.47,8.8-8.08,3.21-2.6,4.96-3.63,7.25-4.95,2.3-1.31,3.15-1.74,4.23-1.63,1.08.1,1.14.5,1.17,2.17.03,1.67-.26,3-1.02,6.16-.75,3.16-1.3,5.36-2.76,9.65-1.45,4.28-2.6,7.01-4.53,11.78-1.92,4.77-3.16,7.47-5.1,12.07-1.93,4.59-2.97,7.05-4.56,10.9-1.59,3.86-2.66,5.72-3.39,8.39-.73,2.66-.73,3.78-.26,4.94.47,1.17,1.1,1.47,2.62.89,1.53-.58,2.69-1.44,5-3.79,2.32-2.35,3.64-4.37,6.58-7.97,2.95-3.59,4.71-5.93,8.13-10.01,3.42-4.08,5.5-6.43,8.95-10.38,3.46-3.95,5.21-6.04,8.32-9.38,3.12-3.34,4.76-4.89,7.28-7.32,2.52-2.44,3.83-3.59,5.33-4.84,1.49-1.25,1.81-1.71,2.15-1.39.35.31.12.9-.42,2.95-.53,2.05-.97,3.64-2.27,7.3-1.3,3.67-2.35,6.33-4.23,11.04-1.88,4.71-3.12,7.54-5.17,12.51-2.06,4.98-3.38,7.71-5.1,12.36-1.72,4.66-2.61,7.07-3.5,10.92-.88,3.85-1.19,5.54-.94,8.32.25,2.77.77,3.94,2.18,5.56,1.41,1.63,2.49,2.21,4.85,2.56,2.37.36,3.91.12,6.97-.78,3.06-.91,4.79-1.86,8.33-3.73,3.55-1.87,5.57-3.18,9.39-5.64,3.83-2.47,5.96-4.01,9.75-6.67,3.79-2.66,5.83-4.19,9.2-6.64,3.38-2.46,5.11-3.69,7.67-5.63,2.57-1.94,3.63-2.78,5.15-4.09,1.52-1.32,1.95-1.79,2.45-2.49.5-.71.36-.87.05-1.05-.3-.18-.73-.18-1.58.13-.86.31-1.47.58-2.69,1.42-1.23.85-1.87,1.47-3.45,2.83-1.58,1.36-2.57,2.15-4.46,3.96-1.88,1.82-3.01,2.92-4.97,5.11-1.95,2.19-2.97,3.43-4.81,5.85-1.85,2.41-2.95,3.75-4.4,6.21-1.44,2.46-2.18,3.83-2.84,6.08-.66,2.25-.76,3.41-.45,5.16.31,1.76.71,2.62,1.99,3.61s2.35,1.35,4.43,1.36c2.08.02,3.46-.28,5.97-1.3s3.87-1.96,6.59-3.8c2.72-1.83,4.21-3.05,6.99-5.37,2.77-2.32,4.27-3.74,6.88-6.23,2.61-2.5,4.06-3.88,6.16-6.24,2.11-2.36,3.29-3.71,4.37-5.56,1.09-1.84,1.26-2.91,1.04-3.64-.21-.73-.94-.72-2.09-.02-1.16.7-2.22,1.62-3.69,3.53-1.48,1.91-2.5,3.48-3.68,6.04-1.18,2.55-1.8,4.25-2.21,6.76-.42,2.5-.45,3.85.14,5.75.6,1.9,1.22,2.74,2.84,3.75,1.63,1.01,2.82,1.35,5.28,1.28,2.47-.07,4.03-.49,7.06-1.63,3.04-1.15,4.72-2.17,8.1-4.11s5.34-3.3,8.81-5.61c3.47-2.3,5.43-3.78,8.54-5.92,3.11-2.14,4.77-3.12,7.02-4.78,2.25-1.65,3.22-2.67,4.24-3.5,1.01-.83,1.07-1.06.83-.66-.24.41-.97,1.11-2.04,2.67-1.07,1.56-1.95,2.82-3.31,5.13-1.36,2.3-2.21,3.97-3.51,6.38-1.29,2.41-2.15,3.75-2.96,5.66-.8,1.91-1.14,2.8-1.07,3.9.07,1.09.46,1.5,1.43,1.57.98.06,1.83-.19,3.46-1.25,1.62-1.05,2.65-2.05,4.66-4.01,2.01-1.97,3.14-3.43,5.4-5.82,2.27-2.39,3.6-3.86,5.92-6.14,2.32-2.27,3.59-3.44,5.68-5.22,2.09-1.79,3.07-2.6,4.78-3.69,1.7-1.08,2.45-1.41,3.74-1.74,1.3-.33,1.84-.31,2.71.09s1.01.91,1.65,1.91c.64,1.01.87,1.82,1.55,3.14.69,1.32,1.05,2.09,1.89,3.46.83,1.36,1.21,2.16,2.29,3.35,1.08,1.18,1.75,1.74,3.13,2.57,1.38.82,2.07,1.22,3.77,1.55,1.71.33,2.77.35,4.76.09,2-.25,3.19-.64,5.21-1.35,2.03-.72,3-1.23,4.9-2.22,1.91-.98,2.89-1.59,4.62-2.7,1.74-1.12,2.66-1.78,4.05-2.88,1.39-1.1,1.96-1.68,2.9-2.62.95-.94,1.5-1.47,1.82-2.07.31-.6.22-1.06-.23-.91-.45.15-1.04.41-2.02,1.64-.97,1.23-1.58,2.34-2.85,4.5-1.26,2.17-2.16,3.68-3.48,6.32-1.33,2.63-2.2,4.25-3.12,6.86-.93,2.61-1.34,3.99-1.51,6.21-.16,2.21-.12,3.29.67,4.85s1.54,2.27,3.27,2.95,2.89.77,5.38.45c2.49-.32,3.93-.87,7.08-2.06,3.15-1.18,4.95-2.08,8.67-3.87,3.72-1.78,5.86-2.98,9.93-5.05,4.07-2.07,6.34-3.26,10.43-5.29,4.09-2.04,6.22-3.12,10-4.89,3.78-1.77,5.72-2.67,8.91-3.97,3.19-1.3,4.71-1.67,7.03-2.53,2.32-.87,3.22-1.14,4.56-1.79s1.78-.91,2.13-1.47c.36-.56.22-.88-.35-1.34-.58-.46-1.24-.8-2.52-.95-1.27-.16-2.18-.14-3.87.19-1.68.33-2.63.71-4.56,1.45-1.92.73-2.9,1.17-5.05,2.22-2.15,1.06-3.4,1.64-5.68,3.06-2.28,1.42-3.54,2.27-5.73,4.04-2.18,1.77-3.42,2.83-5.21,4.81-1.79,1.97-2.69,3.06-3.72,5.08-1.02,2.02-1.38,3.18-1.42,5.01-.03,1.84.23,2.85,1.25,4.18s1.87,1.95,3.86,2.48,3.3.61,6.08.18c2.77-.44,4.46-1.06,7.78-2.36,3.31-1.31,5.2-2.27,8.8-4.17,3.59-1.9,5.67-3.14,9.17-5.32,3.5-2.19,5.61-3.57,8.33-5.61,2.73-2.04,4.03-3.27,5.28-4.61s1.34-1.97.98-2.09c-.36-.13-1.34.22-2.78,1.46-1.44,1.24-2.9,2.47-4.41,4.74-1.52,2.27-2.42,4.02-3.18,6.61-.75,2.59-.98,4.07-.58,6.34.4,2.28.82,3.47,2.58,5.04,1.77,1.57,3.12,2.23,6.23,2.8,3.12.57,5.2.33,9.34.03,4.13-.29,6.65-.69,11.33-1.51,4.68-.83,7.64-1.58,12.07-2.61,4.43-1.03,6.85-1.59,10.09-2.54,3.25-.94,4.96-1.56,6.14-2.17,1.17-.62,1.08-.97-.25-.91-1.32.05-3.09.45-6.37,1.19-3.29.73-5.66,1.47-10.06,2.48-4.4,1.02-7.34,1.81-11.95,2.58-4.62.76-7.15,1.06-11.13,1.23-3.98.17-5.95.06-8.75-.4-2.8-.45-3.87-.77-5.25-1.87-1.38-1.09-1.6-1.9-1.67-3.61-.06-1.71.42-2.83,1.36-4.95.93-2.12,2.02-3.48,3.32-5.66,1.3-2.17,2.33-3.57,3.17-5.22.83-1.65,1.28-2.51.99-3.01-.3-.5-.85-.42-2.45.5-1.6.93-2.84,2.15-5.55,4.13-2.71,1.98-4.6,3.58-8.01,5.77s-5.49,3.39-9.03,5.17c-3.55,1.77-5.47,2.6-8.68,3.7-3.21,1.1-4.88,1.35-7.37,1.79-2.49.44-3.52.59-5.08.42-1.57-.18-2.08-.48-2.75-1.29s-.78-1.43-.6-2.75c.18-1.33.49-2.23,1.49-3.88,1.01-1.65,1.85-2.61,3.55-4.36,1.71-1.75,2.91-2.76,4.99-4.4,2.09-1.65,3.27-2.48,5.44-3.83,2.16-1.35,3.37-1.92,5.4-2.91,2.03-.99,2.97-1.45,4.75-2.04,1.79-.59,2.66-.64,4.17-.92,1.51-.29,2.26-.22,3.37-.5,1.12-.28,1.75-.57,2.2-.91.44-.34.5-.71.03-.8-.47-.1-.95-.02-2.37.34-1.41.36-2.35.58-4.7,1.43-2.35.85-3.86,1.41-7.04,2.82-3.19,1.42-5.11,2.41-8.88,4.25-3.78,1.84-5.91,2.92-10,4.96-4.09,2.03-6.38,3.21-10.47,5.2-4.09,2-6.26,3.15-9.99,4.77-3.73,1.62-5.61,2.3-8.67,3.33-3.05,1.02-4.43,1.39-6.6,1.82-2.18.42-2.99.59-4.27.31-1.28-.28-1.72-.62-2.14-1.7-.42-1.08-.34-1.88.05-3.7.39-1.82.87-3.05,1.9-5.4,1.04-2.36,1.88-3.89,3.28-6.38,1.41-2.49,2.58-3.86,3.77-6.07,1.18-2.22,1.65-3.42,2.15-4.98s.61-2.11.36-2.82c-.26-.71-.78-.86-1.64-.72-.86.13-1.56.62-2.67,1.4s-1.52,1.47-2.88,2.49c-1.35,1.01-2.24,1.58-3.91,2.6-1.66,1.03-2.6,1.64-4.4,2.54-1.79.9-2.73,1.3-4.57,1.95-1.85.64-2.94.97-4.64,1.28-1.7.31-2.53.44-3.87.26-1.34-.17-1.8-.48-2.85-1.14-1.04-.66-1.53-1.12-2.37-2.17-.84-1.04-1.09-1.76-1.82-3.05-.73-1.3-1.04-2.09-1.85-3.41-.8-1.33-1.16-2.14-2.17-3.23-1.01-1.1-1.53-1.72-2.89-2.23-1.36-.51-2.21-.6-3.91-.32-1.69.28-2.59.65-4.57,1.72-1.98,1.08-3.11,1.84-5.33,3.66-2.22,1.82-3.38,3.17-5.75,5.45-2.38,2.29-3.72,3.74-6.12,5.99-2.4,2.25-3.92,3.33-5.9,5.26-1.99,1.94-2.85,3.05-4.02,4.41-1.18,1.36-1.54,1.92-1.85,2.38-.32.46-.23.49.27-.1.51-.59,1.09-1.22,2.24-2.85,1.15-1.63,2.05-2.96,3.5-5.28,1.45-2.31,2.5-3.9,3.76-6.32,1.26-2.41,1.94-3.81,2.53-5.76.59-1.96.84-3.05.42-4-.42-.94-.99-1.13-2.5-.72-1.51.41-2.69,1.2-5.06,2.78-2.36,1.59-3.72,2.93-6.77,5.15-3.04,2.22-5,3.68-8.45,5.93-3.44,2.26-5.42,3.57-8.75,5.35-3.34,1.77-5.09,2.51-7.93,3.53-2.83,1.03-4.19,1.34-6.26,1.59-2.06.25-2.91.21-4.07-.36-1.16-.57-1.51-1.07-1.72-2.47-.21-1.4-.02-2.47.66-4.53.68-2.06,1.55-3.47,2.73-5.78,1.19-2.32,2.15-3.78,3.21-5.79,1.06-2.01,1.65-3.13,2.08-4.26.43-1.12.53-1.56.06-1.36-.47.2-1.05.85-2.4,2.37-1.35,1.52-2.32,2.93-4.36,5.23-2.04,2.3-3.32,3.81-5.84,6.27-2.53,2.46-4.04,3.85-6.79,6.04-2.74,2.19-4.31,3.28-6.95,4.92-2.64,1.64-4.03,2.3-6.26,3.27-2.24.98-3.31,1.34-4.93,1.6-1.61.25-2.3.21-3.13-.31-.84-.51-1-1-1.03-2.27-.03-1.27.12-2.18.87-4.08.75-1.89,1.47-3.12,2.88-5.4,1.41-2.27,2.36-3.67,4.15-5.98,1.79-2.3,2.84-3.47,4.79-5.54,1.95-2.06,3.09-3.07,4.95-4.79,1.87-1.72,2.82-2.49,4.37-3.79,1.56-1.31,2.3-1.71,3.4-2.71,1.11-1,1.63-1.46,2.11-2.28.48-.81.47-1.39.31-1.79-.17-.4-.32-.52-1.15-.2-.83.32-1.36.65-3,1.81-1.63,1.17-2.65,2.04-5.18,4.02-2.52,1.98-4.12,3.37-7.43,5.88-3.31,2.51-5.34,4.04-9.11,6.68-3.77,2.64-5.91,4.16-9.73,6.52-3.81,2.36-5.88,3.58-9.36,5.28-3.49,1.69-5.27,2.32-8.08,3.18-2.8.86-4.02,1.21-5.95,1.14-1.93-.08-2.67-.29-3.69-1.5-1.02-1.21-1.26-2.08-1.41-4.54-.15-2.45-.12-4.04.66-7.74.77-3.69,1.56-6.14,3.22-10.74,1.66-4.61,2.97-7.35,5.07-12.29s3.39-7.74,5.42-12.41c2.03-4.67,3.34-7.2,4.74-10.95,1.4-3.74,2.07-5.4,2.26-7.77.18-2.37-.3-3.38-1.34-4.09-1.03-.71-1.93-.57-3.83.53-1.9,1.09-3.12,2.43-5.67,4.95-2.56,2.53-4.02,4.24-7.1,7.66-3.07,3.42-4.81,5.51-8.28,9.46-3.47,3.96-5.56,6.3-9.07,10.31-3.5,4-5.38,6.28-8.45,9.73-3.08,3.45-4.78,5.13-6.92,7.49-2.15,2.37-2.91,3.41-3.83,4.34-.91.93-.9,1.06-.75.31.15-.75.62-1.57,1.51-4.06.88-2.49,1.46-4.52,2.92-8.39,1.46-3.86,2.46-6.34,4.37-10.94s3.17-7.29,5.18-12.04c2-4.76,3.24-7.45,4.87-11.75,1.63-4.31,2.55-6.44,3.28-9.8.73-3.36.87-4.95.39-7.01-.49-2.05-1.14-2.81-2.82-3.25-1.67-.45-2.98-.3-5.56,1.03-2.57,1.32-4.11,2.77-7.32,5.57-3.2,2.79-5.04,4.54-8.71,8.4-3.68,3.86-5.74,6.16-9.66,10.89-3.92,4.72-6.09,7.5-9.93,12.75-3.85,5.25-5.82,8.08-9.28,13.49-3.47,5.41-5.11,8.4-8.06,13.57-2.95,5.17-4.41,7.93-6.7,12.27-2.28,4.34-3.45,6.41-4.71,9.44s-1.47,4.42-1.6,5.72c-.13,1.29.14,1.49.95.76.81-.73,1.55-1.7,3.1-4.42,1.55-2.72,2.39-4.93,4.64-9.18,2.24-4.25,3.76-6.99,6.57-12.08,2.81-5.08,4.57-8.12,7.48-13.34,2.92-5.22,4.58-8.02,7.1-12.76,2.53-4.75,3.62-7.22,5.55-10.97,1.92-3.74,2.99-5.22,4.08-7.77,1.09-2.55,1.04-3.56,1.37-4.97.33-1.41.39-1.58.28-2.08-.12-.5-.38-.66-.86-.42"/>
  </g>
</svg>