<svg width="471" height="51" viewBox="0 0 471 51" fill="none" xmlns="http://www.w3.org/2000/svg">
<line x1="17" y1="44" x2="471" y2="44" stroke="white" stroke-width="2"/>
<path d="M1.7953 29C1.7953 28.2293 1.8633 27.4587 1.9993 26.688C2.1353 25.8947 2.39596 25.1127 2.7813 24.342C3.16663 23.5713 3.7333 22.8347 4.4813 22.132C5.2293 21.4067 6.2153 20.7267 7.4393 20.092C8.09663 19.752 8.77663 19.4233 9.4793 19.106C10.182 18.766 10.8393 18.4033 11.4513 18.018C12.086 17.61 12.5846 17.1567 12.9473 16.658C13.3326 16.1367 13.5253 15.5247 13.5253 14.822C13.5253 14.2553 13.3553 13.7 13.0153 13.156C12.698 12.612 12.1993 12.17 11.5193 11.83C10.862 11.49 10.0346 11.32 9.0373 11.32C8.31196 11.32 7.65463 11.422 7.0653 11.626C6.47596 11.83 5.95463 12.0907 5.5013 12.408C5.04796 12.7027 4.66263 13.0087 4.3453 13.326C4.02796 13.6207 3.7673 13.87 3.5633 14.074L2.1013 12.476C2.21463 12.34 2.46396 12.102 2.8493 11.762C3.2573 11.3993 3.7673 11.0253 4.3793 10.64C5.01396 10.2547 5.75063 9.926 6.5893 9.654C7.45063 9.382 8.3913 9.246 9.4113 9.246C10.794 9.246 11.9726 9.49533 12.9473 9.994C13.9446 10.47 14.704 11.116 15.2253 11.932C15.7466 12.748 16.0073 13.632 16.0073 14.584C16.0073 15.5133 15.8033 16.318 15.3953 16.998C15.01 17.6553 14.5 18.2333 13.8653 18.732C13.2533 19.208 12.6073 19.6273 11.9273 19.99C11.27 20.33 10.6693 20.6247 10.1253 20.874C9.05996 21.3727 8.16463 21.8713 7.4393 22.37C6.71396 22.8687 6.13596 23.3787 5.7053 23.9C5.27463 24.3987 4.93463 24.8973 4.6853 25.396C4.45863 25.872 4.29996 26.3707 4.2093 26.892H16.3813V29H1.7953ZM36.2878 19.038C36.2878 21.0327 35.9138 22.812 35.1658 24.376C34.4404 25.9173 33.4318 27.13 32.1398 28.014C30.8478 28.898 29.3858 29.34 27.7538 29.34C26.1218 29.34 24.6598 28.898 23.3678 28.014C22.0984 27.13 21.0898 25.9173 20.3418 24.376C19.5938 22.812 19.2198 21.0327 19.2198 19.038C19.2198 17.0433 19.5938 15.2753 20.3418 13.734C21.0898 12.17 22.0984 10.946 23.3678 10.062C24.6598 9.15533 26.1218 8.702 27.7538 8.702C29.3858 8.702 30.8478 9.15533 32.1398 10.062C33.4318 10.946 34.4404 12.17 35.1658 13.734C35.9138 15.2753 36.2878 17.0433 36.2878 19.038ZM33.9418 19.038C33.9418 17.4287 33.6811 16.012 33.1598 14.788C32.6384 13.564 31.9131 12.612 30.9838 11.932C30.0544 11.2293 28.9778 10.878 27.7538 10.878C26.5298 10.878 25.4531 11.2293 24.5238 11.932C23.5944 12.612 22.8578 13.564 22.3138 14.788C21.7924 16.012 21.5318 17.4287 21.5318 19.038C21.5318 20.6473 21.7924 22.064 22.3138 23.288C22.8578 24.512 23.5944 25.464 24.5238 26.144C25.4531 26.824 26.5298 27.164 27.7538 27.164C28.9778 27.164 30.0544 26.824 30.9838 26.144C31.9131 25.4413 32.6384 24.4893 33.1598 23.288C33.6811 22.064 33.9418 20.6473 33.9418 19.038ZM38.9841 29C38.9841 28.2293 39.0521 27.4587 39.1881 26.688C39.3241 25.8947 39.5848 25.1127 39.9701 24.342C40.3555 23.5713 40.9221 22.8347 41.6701 22.132C42.4181 21.4067 43.4041 20.7267 44.6281 20.092C45.2855 19.752 45.9655 19.4233 46.6681 19.106C47.3708 18.766 48.0281 18.4033 48.6401 18.018C49.2748 17.61 49.7735 17.1567 50.1361 16.658C50.5215 16.1367 50.7141 15.5247 50.7141 14.822C50.7141 14.2553 50.5441 13.7 50.2041 13.156C49.8868 12.612 49.3881 12.17 48.7081 11.83C48.0508 11.49 47.2235 11.32 46.2261 11.32C45.5008 11.32 44.8435 11.422 44.2541 11.626C43.6648 11.83 43.1435 12.0907 42.6901 12.408C42.2368 12.7027 41.8515 13.0087 41.5341 13.326C41.2168 13.6207 40.9561 13.87 40.7521 14.074L39.2901 12.476C39.4035 12.34 39.6528 12.102 40.0381 11.762C40.4461 11.3993 40.9561 11.0253 41.5681 10.64C42.2028 10.2547 42.9395 9.926 43.7781 9.654C44.6395 9.382 45.5801 9.246 46.6001 9.246C47.9828 9.246 49.1615 9.49533 50.1361 9.994C51.1335 10.47 51.8928 11.116 52.4141 11.932C52.9355 12.748 53.1961 13.632 53.1961 14.584C53.1961 15.5133 52.9921 16.318 52.5841 16.998C52.1988 17.6553 51.6888 18.2333 51.0541 18.732C50.4421 19.208 49.7961 19.6273 49.1161 19.99C48.4588 20.33 47.8581 20.6247 47.3141 20.874C46.2488 21.3727 45.3535 21.8713 44.6281 22.37C43.9028 22.8687 43.3248 23.3787 42.8941 23.9C42.4635 24.3987 42.1235 24.8973 41.8741 25.396C41.6475 25.872 41.4888 26.3707 41.3981 26.892H53.5701V29H38.9841ZM66.2006 20.976C67.2206 21.1347 68.0933 21.4973 68.8186 22.064C69.5439 22.6307 70.1106 23.3447 70.5186 24.206C70.9266 25.0673 71.1306 26.042 71.1306 27.13C71.1306 28.49 70.8019 29.6913 70.1446 30.734C69.4873 31.7767 68.5693 32.5813 67.3906 33.148C66.2119 33.7147 64.8406 33.998 63.2766 33.998C61.5539 33.998 60.0466 33.6467 58.7546 32.944C57.4626 32.264 56.4879 31.312 55.8306 30.088L57.4286 28.626C57.9273 29.6007 58.6639 30.3827 59.6386 30.972C60.6133 31.584 61.8259 31.89 63.2766 31.89C64.9539 31.89 66.2799 31.4707 67.2546 30.632C68.2519 29.816 68.7506 28.6373 68.7506 27.096C68.7506 25.5547 68.2293 24.3307 67.1866 23.424C66.1666 22.4947 64.7046 22.03 62.8006 22.03H61.9506V20.058H62.8686C64.6139 20.058 65.9513 19.65 66.8806 18.834C67.8099 18.018 68.2746 16.9753 68.2746 15.706C68.2746 14.7767 68.0593 14.006 67.6286 13.394C67.1979 12.782 66.6086 12.3173 65.8606 12C65.1353 11.6827 64.2966 11.524 63.3446 11.524C62.0526 11.524 60.9079 11.8187 59.9106 12.408C58.9359 12.9747 58.1993 13.768 57.7006 14.788L56.2046 13.36C56.5899 12.5667 57.1453 11.8753 57.8706 11.286C58.5959 10.6967 59.4459 10.2433 60.4206 9.926C61.3953 9.586 62.4379 9.416 63.5486 9.416C64.9539 9.416 66.1893 9.67667 67.2546 10.198C68.3199 10.6967 69.1586 11.3993 69.7706 12.306C70.3826 13.2127 70.6886 14.278 70.6886 15.502C70.6886 16.4087 70.5073 17.2473 70.1446 18.018C69.7819 18.7887 69.2606 19.4347 68.5806 19.956C67.9233 20.4773 67.1299 20.8173 66.2006 20.976Z" fill="#DBDBDB"/>
<ellipse cx="17" cy="44.5" rx="7" ry="6.5" fill="#D9D9D9"/>
</svg>
