<svg width="483" height="52" viewBox="0 0 483 52" fill="none" xmlns="http://www.w3.org/2000/svg">
<line x1="-6" y1="43.5714" x2="482.429" y2="43.5714" stroke="white" stroke-width="2"/>
<path d="M399.19 29C399.19 28.2293 399.258 27.4587 399.394 26.688C399.53 25.8947 399.79 25.1127 400.176 24.342C400.561 23.5713 401.128 22.8347 401.876 22.132C402.624 21.4067 403.61 20.7267 404.834 20.092C405.491 19.752 406.171 19.4233 406.874 19.106C407.576 18.766 408.234 18.4033 408.846 18.018C409.48 17.61 409.979 17.1567 410.342 16.658C410.727 16.1367 410.92 15.5247 410.92 14.822C410.92 14.2553 410.75 13.7 410.41 13.156C410.092 12.612 409.594 12.17 408.914 11.83C408.256 11.49 407.429 11.32 406.432 11.32C405.706 11.32 405.049 11.422 404.46 11.626C403.87 11.83 403.349 12.0907 402.896 12.408C402.442 12.7027 402.057 13.0087 401.74 13.326C401.422 13.6207 401.162 13.87 400.958 14.074L399.496 12.476C399.609 12.34 399.858 12.102 400.244 11.762C400.652 11.3993 401.162 11.0253 401.774 10.64C402.408 10.2547 403.145 9.926 403.984 9.654C404.845 9.382 405.786 9.246 406.806 9.246C408.188 9.246 409.367 9.49533 410.342 9.994C411.339 10.47 412.098 11.116 412.62 11.932C413.141 12.748 413.402 13.632 413.402 14.584C413.402 15.5133 413.198 16.318 412.79 16.998C412.404 17.6553 411.894 18.2333 411.26 18.732C410.648 19.208 410.002 19.6273 409.322 19.99C408.664 20.33 408.064 20.6247 407.52 20.874C406.454 21.3727 405.559 21.8713 404.834 22.37C404.108 22.8687 403.53 23.3787 403.1 23.9C402.669 24.3987 402.329 24.8973 402.08 25.396C401.853 25.872 401.694 26.3707 401.604 26.892H413.776V29H399.19ZM433.682 19.038C433.682 21.0327 433.308 22.812 432.56 24.376C431.835 25.9173 430.826 27.13 429.534 28.014C428.242 28.898 426.78 29.34 425.148 29.34C423.516 29.34 422.054 28.898 420.762 28.014C419.493 27.13 418.484 25.9173 417.736 24.376C416.988 22.812 416.614 21.0327 416.614 19.038C416.614 17.0433 416.988 15.2753 417.736 13.734C418.484 12.17 419.493 10.946 420.762 10.062C422.054 9.15533 423.516 8.702 425.148 8.702C426.78 8.702 428.242 9.15533 429.534 10.062C430.826 10.946 431.835 12.17 432.56 13.734C433.308 15.2753 433.682 17.0433 433.682 19.038ZM431.336 19.038C431.336 17.4287 431.076 16.012 430.554 14.788C430.033 13.564 429.308 12.612 428.378 11.932C427.449 11.2293 426.372 10.878 425.148 10.878C423.924 10.878 422.848 11.2293 421.918 11.932C420.989 12.612 420.252 13.564 419.708 14.788C419.187 16.012 418.926 17.4287 418.926 19.038C418.926 20.6473 419.187 22.064 419.708 23.288C420.252 24.512 420.989 25.464 421.918 26.144C422.848 26.824 423.924 27.164 425.148 27.164C426.372 27.164 427.449 26.824 428.378 26.144C429.308 25.4413 430.033 24.4893 430.554 23.288C431.076 22.064 431.336 20.6473 431.336 19.038ZM436.379 29C436.379 28.2293 436.447 27.4587 436.583 26.688C436.719 25.8947 436.979 25.1127 437.365 24.342C437.75 23.5713 438.317 22.8347 439.065 22.132C439.813 21.4067 440.799 20.7267 442.023 20.092C442.68 19.752 443.36 19.4233 444.063 19.106C444.765 18.766 445.423 18.4033 446.035 18.018C446.669 17.61 447.168 17.1567 447.531 16.658C447.916 16.1367 448.109 15.5247 448.109 14.822C448.109 14.2553 447.939 13.7 447.599 13.156C447.281 12.612 446.783 12.17 446.103 11.83C445.445 11.49 444.618 11.32 443.621 11.32C442.895 11.32 442.238 11.422 441.649 11.626C441.059 11.83 440.538 12.0907 440.085 12.408C439.631 12.7027 439.246 13.0087 438.929 13.326C438.611 13.6207 438.351 13.87 438.147 14.074L436.685 12.476C436.798 12.34 437.047 12.102 437.433 11.762C437.841 11.3993 438.351 11.0253 438.963 10.64C439.597 10.2547 440.334 9.926 441.173 9.654C442.034 9.382 442.975 9.246 443.995 9.246C445.377 9.246 446.556 9.49533 447.531 9.994C448.528 10.47 449.287 11.116 449.809 11.932C450.33 12.748 450.591 13.632 450.591 14.584C450.591 15.5133 450.387 16.318 449.979 16.998C449.593 17.6553 449.083 18.2333 448.449 18.732C447.837 19.208 447.191 19.6273 446.511 19.99C445.853 20.33 445.253 20.6247 444.709 20.874C443.643 21.3727 442.748 21.8713 442.023 22.37C441.297 22.8687 440.719 23.3787 440.289 23.9C439.858 24.3987 439.518 24.8973 439.269 25.396C439.042 25.872 438.883 26.3707 438.793 26.892H450.965V29H436.379ZM453.429 29C453.429 28.2293 453.497 27.4587 453.633 26.688C453.769 25.8947 454.03 25.1127 454.415 24.342C454.8 23.5713 455.367 22.8347 456.115 22.132C456.863 21.4067 457.849 20.7267 459.073 20.092C459.73 19.752 460.41 19.4233 461.113 19.106C461.816 18.766 462.473 18.4033 463.085 18.018C463.72 17.61 464.218 17.1567 464.581 16.658C464.966 16.1367 465.159 15.5247 465.159 14.822C465.159 14.2553 464.989 13.7 464.649 13.156C464.332 12.612 463.833 12.17 463.153 11.83C462.496 11.49 461.668 11.32 460.671 11.32C459.946 11.32 459.288 11.422 458.699 11.626C458.11 11.83 457.588 12.0907 457.135 12.408C456.682 12.7027 456.296 13.0087 455.979 13.326C455.662 13.6207 455.401 13.87 455.197 14.074L453.735 12.476C453.848 12.34 454.098 12.102 454.483 11.762C454.891 11.3993 455.401 11.0253 456.013 10.64C456.648 10.2547 457.384 9.926 458.223 9.654C459.084 9.382 460.025 9.246 461.045 9.246C462.428 9.246 463.606 9.49533 464.581 9.994C465.578 10.47 466.338 11.116 466.859 11.932C467.38 12.748 467.641 13.632 467.641 14.584C467.641 15.5133 467.437 16.318 467.029 16.998C466.644 17.6553 466.134 18.2333 465.499 18.732C464.887 19.208 464.241 19.6273 463.561 19.99C462.904 20.33 462.303 20.6247 461.759 20.874C460.694 21.3727 459.798 21.8713 459.073 22.37C458.348 22.8687 457.77 23.3787 457.339 23.9C456.908 24.3987 456.568 24.8973 456.319 25.396C456.092 25.872 455.934 26.3707 455.843 26.892H468.015V29H453.429Z" fill="#DBDBDB"/>
<circle cx="474.536" cy="44.1072" r="7.89286" fill="#D9D9D9"/>
</svg>
