<svg width="500" height="51" viewBox="0 0 500 51" fill="none" xmlns="http://www.w3.org/2000/svg">
<path d="M415.096 29C415.096 28.2293 415.164 27.4587 415.3 26.688C415.436 25.8947 415.697 25.1127 416.082 24.342C416.467 23.5713 417.034 22.8347 417.782 22.132C418.53 21.4067 419.516 20.7267 420.74 20.092C421.397 19.752 422.077 19.4233 422.78 19.106C423.483 18.766 424.14 18.4033 424.752 18.018C425.387 17.61 425.885 17.1567 426.248 16.658C426.633 16.1367 426.826 15.5247 426.826 14.822C426.826 14.2553 426.656 13.7 426.316 13.156C425.999 12.612 425.5 12.17 424.82 11.83C424.163 11.49 423.335 11.32 422.338 11.32C421.613 11.32 420.955 11.422 420.366 11.626C419.777 11.83 419.255 12.0907 418.802 12.408C418.349 12.7027 417.963 13.0087 417.646 13.326C417.329 13.6207 417.068 13.87 416.864 14.074L415.402 12.476C415.515 12.34 415.765 12.102 416.15 11.762C416.558 11.3993 417.068 11.0253 417.68 10.64C418.315 10.2547 419.051 9.926 419.89 9.654C420.751 9.382 421.692 9.246 422.712 9.246C424.095 9.246 425.273 9.49533 426.248 9.994C427.245 10.47 428.005 11.116 428.526 11.932C429.047 12.748 429.308 13.632 429.308 14.584C429.308 15.5133 429.104 16.318 428.696 16.998C428.311 17.6553 427.801 18.2333 427.166 18.732C426.554 19.208 425.908 19.6273 425.228 19.99C424.571 20.33 423.97 20.6247 423.426 20.874C422.361 21.3727 421.465 21.8713 420.74 22.37C420.015 22.8687 419.437 23.3787 419.006 23.9C418.575 24.3987 418.235 24.8973 417.986 25.396C417.759 25.872 417.601 26.3707 417.51 26.892H429.682V29H415.096ZM449.589 19.038C449.589 21.0327 449.215 22.812 448.467 24.376C447.741 25.9173 446.733 27.13 445.441 28.014C444.149 28.898 442.687 29.34 441.055 29.34C439.423 29.34 437.961 28.898 436.669 28.014C435.399 27.13 434.391 25.9173 433.643 24.376C432.895 22.812 432.521 21.0327 432.521 19.038C432.521 17.0433 432.895 15.2753 433.643 13.734C434.391 12.17 435.399 10.946 436.669 10.062C437.961 9.15533 439.423 8.702 441.055 8.702C442.687 8.702 444.149 9.15533 445.441 10.062C446.733 10.946 447.741 12.17 448.467 13.734C449.215 15.2753 449.589 17.0433 449.589 19.038ZM447.243 19.038C447.243 17.4287 446.982 16.012 446.461 14.788C445.939 13.564 445.214 12.612 444.285 11.932C443.355 11.2293 442.279 10.878 441.055 10.878C439.831 10.878 438.754 11.2293 437.825 11.932C436.895 12.612 436.159 13.564 435.615 14.788C435.093 16.012 434.833 17.4287 434.833 19.038C434.833 20.6473 435.093 22.064 435.615 23.288C436.159 24.512 436.895 25.464 437.825 26.144C438.754 26.824 439.831 27.164 441.055 27.164C442.279 27.164 443.355 26.824 444.285 26.144C445.214 25.4413 445.939 24.4893 446.461 23.288C446.982 22.064 447.243 20.6473 447.243 19.038ZM452.285 29C452.285 28.2293 452.353 27.4587 452.489 26.688C452.625 25.8947 452.886 25.1127 453.271 24.342C453.656 23.5713 454.223 22.8347 454.971 22.132C455.719 21.4067 456.705 20.7267 457.929 20.092C458.586 19.752 459.266 19.4233 459.969 19.106C460.672 18.766 461.329 18.4033 461.941 18.018C462.576 17.61 463.074 17.1567 463.437 16.658C463.822 16.1367 464.015 15.5247 464.015 14.822C464.015 14.2553 463.845 13.7 463.505 13.156C463.188 12.612 462.689 12.17 462.009 11.83C461.352 11.49 460.524 11.32 459.527 11.32C458.802 11.32 458.144 11.422 457.555 11.626C456.966 11.83 456.444 12.0907 455.991 12.408C455.538 12.7027 455.152 13.0087 454.835 13.326C454.518 13.6207 454.257 13.87 454.053 14.074L452.591 12.476C452.704 12.34 452.954 12.102 453.339 11.762C453.747 11.3993 454.257 11.0253 454.869 10.64C455.504 10.2547 456.24 9.926 457.079 9.654C457.94 9.382 458.881 9.246 459.901 9.246C461.284 9.246 462.462 9.49533 463.437 9.994C464.434 10.47 465.194 11.116 465.715 11.932C466.236 12.748 466.497 13.632 466.497 14.584C466.497 15.5133 466.293 16.318 465.885 16.998C465.5 17.6553 464.99 18.2333 464.355 18.732C463.743 19.208 463.097 19.6273 462.417 19.99C461.76 20.33 461.159 20.6247 460.615 20.874C459.55 21.3727 458.654 21.8713 457.929 22.37C457.204 22.8687 456.626 23.3787 456.195 23.9C455.764 24.3987 455.424 24.8973 455.175 25.396C454.948 25.872 454.79 26.3707 454.699 26.892H466.871V29H452.285ZM479.943 33.318V27.266H468.621V25.226L480.691 9.586H482.255V25.158H485.247V27.266H482.255V33.318H479.943ZM471.069 25.158H480.181V13.224L471.069 25.158Z" fill="#DBDBDB"/>
<circle cx="492.5" cy="43.5" r="7.5" fill="#D9D9D9"/>
<line x1="8.74228e-08" y1="42" x2="492" y2="42" stroke="white" stroke-width="2"/>
</svg>
