<?xml version="1.0" encoding="UTF-8"?>
<svg id="Livello_2" data-name="Livello 2" xmlns="http://www.w3.org/2000/svg" xmlns:xlink="http://www.w3.org/1999/xlink" viewBox="0 0 263.03 49.2">
  <defs>
    <style>
      .cls-1 {
        fill: url(#Sfumatura_senza_nome_7);
      }

      .cls-1, .cls-2, .cls-3, .cls-4, .cls-5, .cls-6, .cls-7 {
        stroke-width: 0px;
      }

      .cls-2 {
        fill: url(#Sfumatura_senza_nome_7-4);
      }

      .cls-3 {
        fill: url(#Sfumatura_senza_nome_7-7);
      }

      .cls-4 {
        fill: url(#Sfumatura_senza_nome_7-2);
      }

      .cls-5 {
        fill: url(#Sfumatura_senza_nome_7-6);
      }

      .cls-6 {
        fill: url(#Sfumatura_senza_nome_7-3);
      }

      .cls-7 {
        fill: url(#Sfumatura_senza_nome_7-5);
      }
    </style>
    <linearGradient id="Sfumatura_senza_nome_7" data-name="Sfumatura senza nome 7" x1="244.51" y1="282.97" x2="244.51" y2="234.01" gradientTransform="translate(0 283.2) scale(1 -1)" gradientUnits="userSpaceOnUse">
      <stop offset=".34" stop-color="#cdcdcd"/>
      <stop offset="1" stop-color="#cdcdcd" stop-opacity="0"/>
    </linearGradient>
    <linearGradient id="Sfumatura_senza_nome_7-2" data-name="Sfumatura senza nome 7" x1="198.5" y1="282.69" x2="198.5" y2="234.69" xlink:href="#Sfumatura_senza_nome_7"/>
    <linearGradient id="Sfumatura_senza_nome_7-3" data-name="Sfumatura senza nome 7" x1="151.9" y1="283.2" x2="151.9" y2="234.24" xlink:href="#Sfumatura_senza_nome_7"/>
    <linearGradient id="Sfumatura_senza_nome_7-4" data-name="Sfumatura senza nome 7" x1="114.57" y1="283.2" x2="114.57" y2="234.24" xlink:href="#Sfumatura_senza_nome_7"/>
    <linearGradient id="Sfumatura_senza_nome_7-5" data-name="Sfumatura senza nome 7" x1="87.58" y1="283.2" x2="87.58" y2="234.24" xlink:href="#Sfumatura_senza_nome_7"/>
    <linearGradient id="Sfumatura_senza_nome_7-6" data-name="Sfumatura senza nome 7" x1="59.77" y1="283.2" x2="59.77" y2="234.24" xlink:href="#Sfumatura_senza_nome_7"/>
    <linearGradient id="Sfumatura_senza_nome_7-7" data-name="Sfumatura senza nome 7" x1="19.6" y1="283.2" x2="19.6" y2="234.24" xlink:href="#Sfumatura_senza_nome_7"/>
  </defs>
  <g id="Livello_1-2" data-name="Livello 1">
    <path class="cls-1" d="M226,49.2V.23h5.03l26.96,40.12V.23h5.03v48.96h-5.03l-26.96-40.15v40.15h-5.03Z"/>
    <path class="cls-4" d="M174,48.51V.51h49v4.7h-43.52v16.6h34.02v4.7h-34.02v17.3h43.52v4.7h-49Z"/>
    <path class="cls-6" d="M149.4,48.96V4.79h-17.1V0h39.2v4.79h-17.1v44.17h-5Z"/>
    <path class="cls-2" d="M96.88,48.96V0h18.9c.48,0,1.01.02,1.6.07.61.02,1.22.09,1.84.2,2.56.39,4.73,1.28,6.49,2.69,1.79,1.38,3.14,3.13,4.05,5.24.93,2.11,1.39,4.44,1.39,7,0,3.69-.97,6.9-2.92,9.62-1.95,2.72-4.74,4.43-8.36,5.13l-1.73.41h-16.25v18.6h-5ZM126.52,48.96l-9.66-19.92,4.79-1.84,10.61,21.76h-5.75ZM101.87,25.6h13.77c.41,0,.88-.02,1.43-.07.54-.05,1.08-.12,1.6-.24,1.68-.36,3.05-1.05,4.11-2.07,1.09-1.02,1.89-2.23,2.41-3.64.54-1.41.82-2.87.82-4.39s-.27-2.98-.82-4.39c-.52-1.43-1.33-2.65-2.41-3.67-1.07-1.02-2.44-1.71-4.11-2.07-.52-.11-1.05-.18-1.6-.2-.54-.05-1.02-.07-1.43-.07h-13.77v20.81Z"/>
    <path class="cls-7" d="M85.08,48.96V0h5v48.96h-5Z"/>
    <path class="cls-5" d="M41.25,48.96V0h5v22.07h27.06V0h4.96v48.96h-4.96v-22.1h-27.06v22.1h-5Z"/>
    <path class="cls-3" d="M17.1,48.96V4.79H0V0h39.2v4.79h-17.1v44.17h-5Z"/>
  </g>
</svg>