<svg width="650" height="127" viewBox="0 0 650 127" fill="none" xmlns="http://www.w3.org/2000/svg">
<path d="M557.281 126V126.5H557.781H570.178H570.678V126V25.6573L636.184 126.273L636.332 126.5H636.603H649H649.5V126V1.59766V1.09766H649H636.603H636.103V1.59766V101.856L570.597 1.32469L570.449 1.09766H570.178H557.781H557.281V1.59766V126Z" stroke="#DBDBDB"/>
<path d="M429.172 124.259V124.759H429.672H550.39H550.89V124.259V112.317V111.817H550.39H443.669V68.8594H526.986H527.486V68.3594V56.4172V55.9172H526.986H443.669V14.7382H550.39H550.89V14.2382V2.2959V1.7959H550.39H429.672H429.172V2.2959V124.259Z" stroke="#DBDBDB"/>
<path d="M368.558 125.403V125.903H369.058H381.372H381.872V125.403V13.6811H423.505H424.005V13.1811V1V0.5H423.505H326.925H326.425V1V13.1811V13.6811H326.925H368.558V125.403Z" stroke="#DBDBDB"/>
<path d="M239.167 125.403V125.903H239.667H251.981H252.481V125.403V78.647H290.186L312.257 125.615L312.392 125.903H312.709H326.865H327.655L327.317 125.189L303.764 75.3598C309.327 73.0018 313.846 69.3327 317.308 64.3506C322.175 57.346 324.601 49.0942 324.601 39.6167C324.601 33.0499 323.446 27.0506 321.128 21.626C318.863 16.1961 315.491 11.6935 311.013 8.12694C306.582 4.49524 301.167 2.18981 294.785 1.19838C293.26 0.907409 291.733 0.732394 290.206 0.673542C288.748 0.558087 287.426 0.5 286.24 0.5H239.667H239.167V1V125.403ZM252.481 66.0523V65.5523H251.981V66.0523H252.481ZM251.981 13.6811H252.481V13.1811H251.981V13.6811Z" stroke="#DBDBDB"/>
<path d="M210.118 125.403V125.903H210.618H222.931H223.431V125.403V1V0.5H222.931H210.618H210.118V1V125.403Z" stroke="#DBDBDB"/>
<path d="M102.135 125.403V125.903H102.635H114.949H115.449V125.403V69.7487H181.124V125.403V125.903H181.624H193.854H194.354V125.403V1V0.5H193.854H181.624H181.124V1V56.5676H115.449V1V0.5H114.949H102.635H102.135V1V125.403Z" stroke="#DBDBDB"/>
<path d="M42.6331 125.403V125.903H43.1331H55.4463H55.9463V125.403V13.6811H97.5794H98.0794V13.1811V1V0.5H97.5794H1H0.5V1V13.1811V13.6811H1H42.6331V125.403Z" stroke="#DBDBDB"/>
</svg>
