<svg width="918" height="227" viewBox="0 0 918 227" fill="none" xmlns="http://www.w3.org/2000/svg">
<path d="M38.7069 227V23.72H0.346881V0.199983H107.587V23.72H70.3469V227H38.7069ZM123.851 227V0.199983H155.491V98.2H213.731V0.199983H245.371V227H213.731V120.88H155.491V227H123.851ZM276.884 227V0.199983H307.964V227H276.884ZM339.057 227V0.199983H384.697C399.817 0.199983 412.324 2.25332 422.217 6.35999C432.111 10.28 439.391 16.72 444.057 25.68C448.911 34.4533 451.337 46.0267 451.337 60.4C451.337 69.1733 450.404 77.2 448.537 84.48C446.671 91.5733 443.684 97.64 439.577 102.68C435.471 107.533 430.057 111.08 423.337 113.32L455.537 227H425.017L395.337 120.6H370.697V227H339.057ZM370.697 97.92H382.737C391.697 97.92 398.977 96.8 404.577 94.56C410.177 92.32 414.284 88.4933 416.897 83.08C419.511 77.6667 420.817 70.1067 420.817 60.4C420.817 47.1467 418.391 37.6267 413.537 31.84C408.684 25.8667 399.071 22.88 384.697 22.88H370.697V97.92ZM503.573 227V23.72H465.213V0.199983H572.453V23.72H535.213V227H503.573ZM588.717 227V0.199983H676.637V23.72H620.357V98.76H665.997V121.16H620.357V204.32H677.197V227H588.717ZM697.14 227V0.199983H785.06V23.72H728.78V98.76H774.42V121.16H728.78V204.32H785.62V227H697.14ZM805.563 227V0.199983H827.123L891.523 150.84V0.199983H917.843V227H897.683L832.443 72.16V227H805.563Z" fill="#484348" fill-opacity="0.5"/>
</svg>
