<svg width="1681" height="249" viewBox="0 0 1681 249" fill="none" xmlns="http://www.w3.org/2000/svg">
<path d="M40.5387 246L0.938673 2.99998H29.1387L55.2387 177.6L87.9387 3.89999H111.939L144.939 178.5L170.439 2.99998H198.039L159.039 246H134.439L100.539 66L66.3387 246H40.5387ZM199.604 246L251.204 2.99998H283.904L335.804 246H303.704L292.604 184.8H243.104L231.404 246H199.604ZM247.604 160.5H288.104L267.704 51L247.604 160.5ZM354.461 246V2.99998H388.361V221.7H450.461V246H354.461ZM467.699 246V2.99998H501.599V117.6L557.399 2.99998H588.899L540.899 110.1L596.699 246H563.699L517.199 132L501.599 160.2V246H467.699ZM699.489 246V28.2H658.389V2.99998H773.289V28.2H733.389V246H699.489ZM790.714 246V2.99998H824.614V108H887.014V2.99998H920.914V246H887.014V132.3H824.614V246H790.714ZM954.679 246V2.99998H987.979V246H954.679ZM1078.59 248.7C1064.59 248.7 1052.89 245.7 1043.49 239.7C1034.29 233.7 1027.29 225.4 1022.49 214.8C1017.69 204.2 1014.89 191.9 1014.09 177.9L1044.09 169.8C1044.69 178.4 1045.99 186.7 1047.99 194.7C1050.19 202.7 1053.69 209.3 1058.49 214.5C1063.29 219.5 1069.99 222 1078.59 222C1087.39 222 1093.99 219.6 1098.39 214.8C1102.99 209.8 1105.29 202.7 1105.29 193.5C1105.29 182.5 1102.79 173.7 1097.79 167.1C1092.79 160.3 1086.49 153.5 1078.89 146.7L1038.09 110.7C1030.09 103.7 1024.19 96.1 1020.39 87.9C1016.59 79.5 1014.69 69.2 1014.69 57C1014.69 39.2 1019.79 25.4 1029.99 15.6C1040.19 5.79999 1054.09 0.899991 1071.69 0.899991C1081.29 0.899991 1089.69 2.19999 1096.89 4.79999C1104.29 7.19999 1110.39 11 1115.19 16.2C1120.19 21.4 1124.09 28 1126.89 36C1129.89 43.8 1131.89 53 1132.89 63.6L1104.09 71.4C1103.49 63.4 1102.29 56.1 1100.49 49.5C1098.69 42.7 1095.49 37.3 1090.89 33.3C1086.49 29.1 1080.09 27 1071.69 27C1063.29 27 1056.69 29.3 1051.89 33.9C1047.29 38.3 1044.99 44.9 1044.99 53.7C1044.99 61.1 1046.19 67.2 1048.59 72C1051.19 76.8 1055.29 81.7 1060.89 86.7L1101.99 122.7C1111.19 130.7 1119.29 140.3 1126.29 151.5C1133.29 162.5 1136.79 175.6 1136.79 190.8C1136.79 202.8 1134.29 213.2 1129.29 222C1124.29 230.6 1117.39 237.2 1108.59 241.8C1099.99 246.4 1089.99 248.7 1078.59 248.7ZM1251.14 246L1211.54 2.99998H1239.74L1265.84 177.6L1298.54 3.89999H1322.54L1355.54 178.5L1381.04 2.99998H1408.64L1369.64 246H1345.04L1311.14 66L1276.94 246H1251.14ZM1410.21 246L1461.81 2.99998H1494.51L1546.41 246H1514.31L1503.21 184.8H1453.71L1442.01 246H1410.21ZM1458.21 160.5H1498.71L1478.31 51L1458.21 160.5ZM1595.53 246V160.2L1543.03 2.99998H1574.53L1611.73 120.3L1648.33 2.99998H1680.13L1627.93 160.2V246H1595.53Z" fill="#484348" fill-opacity="0.25"/>
</svg>
